<svg width="160" height="33" viewBox="0 0 160 33" fill="none" xmlns="http://www.w3.org/2000/svg" aria-hidden="true" class="absolute inset-0 top-16 left-16 max-h-8 w-fit"><path d="M0.785156 0.164062H32.5809V32.1641H0.785156V0.164062Z" fill="#fff"></path><path d="M89.7044 6.49609C89.9768 6.49609 90.0449 6.83652 90.0449 7.10886C90.1129 8.19822 90.181 9.2195 90.181 10.3089C90.2491 11.3301 90.2491 12.3514 90.2491 13.3727C90.8619 12.8961 91.4066 12.4195 92.0874 12.2152C93.1768 11.7386 94.4704 11.7386 95.5597 12.2833C96.7172 12.8961 97.4661 13.9855 97.8746 15.1429C98.2151 16.3003 98.3512 17.5259 98.2832 18.6833C98.147 20.1131 97.8066 21.4748 96.9895 22.6323C96.5129 23.3131 95.9002 23.8578 95.0832 24.1301C93.7895 24.6067 92.4278 24.4025 91.2704 23.7216C90.93 23.5174 90.5895 23.1769 90.3172 22.9046C90.181 23.3131 90.1129 23.7216 89.9768 24.1301C89.364 24.1301 88.8193 24.1982 88.2066 24.0621C88.4108 23.1089 88.4108 22.0876 88.4789 21.1344C88.547 17.6621 88.4789 14.1897 88.4789 10.7855C88.4108 9.42375 88.4789 8.06205 88.2746 6.76843C88.6832 6.63226 89.2278 6.49609 89.7044 6.49609ZM94.198 13.645C93.6534 13.5089 93.1087 13.5089 92.6321 13.5769C91.6789 13.7131 90.93 14.394 90.3172 15.0748C90.3172 15.2791 90.3172 15.5514 90.3172 15.7557V21.2706C90.3172 21.4748 90.4534 21.611 90.5895 21.6791C91.5427 22.5642 92.9044 22.9727 94.13 22.7003C94.7427 22.5642 95.2874 22.1557 95.5597 21.611C96.0363 20.8621 96.1725 19.9769 96.2406 19.0918C96.3087 18.411 96.3768 17.7301 96.3087 17.1174C96.3087 16.3684 96.1044 15.5514 95.6959 14.8706C95.3555 14.1897 94.8108 13.7812 94.198 13.645ZM102.028 6.97269C102.368 6.83652 102.845 6.83652 103.185 7.04077C103.526 7.24503 103.798 7.58546 103.934 7.92588C104.138 8.7429 103.526 9.62801 102.709 9.69609C102.096 9.76418 101.415 9.42375 101.211 8.7429C100.938 8.13014 101.347 7.24503 102.028 6.97269ZM45.7215 8.40248C46.6066 7.78971 47.6959 7.31311 48.7853 7.31311C49.9427 7.31311 51.1002 7.3812 52.1215 7.8578C52.53 8.06205 52.9385 8.26631 53.347 8.53865C53.0746 9.01524 52.7342 9.35567 52.3938 9.76418C51.9853 9.55992 51.5768 9.28758 51.1002 9.08333C50.0108 8.67482 48.7172 8.60673 47.6278 9.08333C46.6747 9.42375 45.9257 10.1727 45.4491 11.0578C45.1768 11.7386 44.9044 12.4195 44.7683 13.1003C44.6321 13.7812 44.6321 14.4621 44.564 15.1429C44.564 16.028 44.4959 16.9812 44.564 17.8663C44.7002 19.1599 45.1768 20.3855 45.9938 21.3386C46.7427 22.2238 47.8321 22.7003 48.9895 22.8365C49.6023 22.8365 50.147 22.8365 50.7598 22.7003C51.4406 22.5642 52.0534 22.1557 52.7342 21.8833C53.0747 22.2238 53.4151 22.7004 53.7555 23.1089C53.2789 23.3812 52.8023 23.6535 52.2576 23.8578C50.8959 24.4025 49.33 24.4706 47.9002 24.2663C46.8108 24.0621 45.8576 23.5174 45.0406 22.8365C44.0874 22.0195 43.4066 20.9301 42.9981 19.7727C42.7257 18.9557 42.5895 18.1386 42.5215 17.3216C42.5215 16.7089 42.3853 16.0961 42.5215 15.4152C42.5215 14.2578 42.7257 13.0323 43.2023 11.9429C43.6789 10.5812 44.4959 9.28758 45.7215 8.40248Z" fill="#fff"></path><path d="M10.1797 8.13003C10.3159 8.13003 10.452 8.06194 10.5882 8.06194C11.269 8.06194 11.9499 8.06194 12.6308 8.13003C12.7669 8.13003 12.7669 8.19811 12.835 8.2662C13.8563 10.3768 14.8776 12.5556 15.9669 14.7343C16.1712 15.2109 16.3754 15.6194 16.6478 16.0279C16.852 15.6875 17.0563 15.3471 17.2605 14.9385C18.418 12.6236 19.5754 10.3768 20.7329 8.06194C21.4818 8.06194 22.2308 7.99386 23.0478 8.13003C22.9116 8.60662 22.6393 8.94705 22.435 9.35556C20.9371 12.2832 19.3712 15.2109 17.8052 18.1385C17.7371 18.2747 17.7371 18.3428 17.7371 18.479C17.7371 20.5896 17.7371 22.7002 17.7371 24.7428C16.9882 24.7428 16.2393 24.7428 15.4903 24.7428C15.4903 22.7002 15.4903 20.6577 15.4903 18.6151C15.4903 18.4109 15.4903 18.1385 15.3542 17.9343C13.9244 15.279 12.5627 12.6236 11.1329 9.90024C10.8605 9.35556 10.5201 8.74279 10.1797 8.13003Z" fill="#FF5A00"></path><path d="M133.005 9.08304C133.618 8.87879 134.231 8.74262 134.912 8.60645C134.775 9.76389 134.707 10.9213 134.707 12.1469C135.66 12.1469 136.682 12.1469 137.635 12.215C137.499 12.6916 137.295 13.1001 137.09 13.5086C136.273 13.5086 135.456 13.5086 134.571 13.5086C134.571 14.5979 134.571 15.6873 134.571 16.7767C134.571 17.5937 134.639 18.4788 134.571 19.3639C134.571 20.3171 134.571 21.3384 134.639 22.2916C134.639 22.7001 135.048 22.9724 135.388 23.1086C136.001 23.2447 136.614 23.1767 137.226 23.0405C137.363 23.3809 137.431 23.7894 137.431 24.1298C136.886 24.4022 136.273 24.4703 135.661 24.5384C134.843 24.5384 133.89 24.4022 133.278 23.7894C132.801 23.3128 132.801 22.5639 132.733 21.9511C132.665 20.5894 132.733 19.1596 132.665 17.7979C132.665 16.3681 132.665 15.0064 132.665 13.5767C132.12 13.5767 131.575 13.5767 131.099 13.5767C131.099 13.1001 131.099 12.6235 131.099 12.215C131.643 12.215 132.12 12.215 132.665 12.215C132.869 11.1256 132.869 10.0362 133.005 9.08304ZM60.835 11.8064C61.3116 11.8064 61.8563 11.8064 62.3328 11.9426C63.4222 12.283 64.3754 13.1001 64.9201 14.0533C65.3967 14.9384 65.7371 15.8916 65.8052 16.9128C65.8733 18.2745 65.9414 19.6362 65.4648 20.9298C65.0563 22.1554 64.2392 23.2447 63.0818 23.8575C61.9243 24.4703 60.5626 24.5384 59.3371 24.1979C58.2477 23.9256 57.2945 23.1767 56.6137 22.2235C55.9328 21.2022 55.6605 19.9767 55.6605 18.683C55.6605 17.5256 55.5924 16.3001 56.0009 15.1426C56.3414 14.0533 57.0903 13.032 58.1116 12.3511C58.5882 12.0788 59.0648 11.8064 59.6094 11.7384C60.018 11.8064 60.4265 11.8064 60.835 11.8064ZM59.8818 13.3724C59.269 13.5086 58.6563 13.9171 58.3158 14.4618C57.8392 15.2788 57.7031 16.232 57.7031 17.1852C57.635 17.866 57.7031 18.5469 57.7711 19.2277C57.9073 20.0447 58.0435 20.9298 58.452 21.6788C58.8605 22.4958 59.7456 22.8362 60.6307 22.9043C61.4477 22.9724 62.3328 22.7681 62.9456 22.0873C63.4222 21.5426 63.6945 20.9298 63.7626 20.1809C63.8988 19.2958 63.8988 18.4107 63.8307 17.5937C63.8307 16.7086 63.6945 15.7554 63.3541 14.8703C63.1499 14.3256 62.7414 13.9171 62.2648 13.6447C61.5158 13.2362 60.6988 13.1681 59.8818 13.3724ZM69.1414 12.215C69.686 12.0107 70.2307 11.8745 70.8435 11.8064C71.0477 12.3511 71.1839 12.8958 71.252 13.5086C71.6605 13.3043 71.9328 12.9639 72.3414 12.7596C73.1584 12.1469 74.1797 11.8064 75.2009 11.8064C75.4052 11.8064 75.6775 11.8745 75.8818 12.0107C76.2222 12.215 76.5626 12.3511 76.9031 12.6235C77.1754 12.8958 77.3797 13.3043 77.5839 13.6447C78.0605 13.4405 78.4009 13.032 78.8094 12.7596C79.4903 12.283 80.3073 11.8745 81.2605 11.8064C82.0775 11.7384 82.8945 12.0107 83.5073 12.5554C83.7797 12.8277 84.052 13.1001 84.1882 13.4405C84.3243 13.7809 84.3924 14.1213 84.3924 14.5299C84.5286 16.4362 84.4605 18.4107 84.5286 20.3171C84.5286 21.6107 84.5286 22.9043 84.5286 24.1979C83.9158 24.1979 83.235 24.1979 82.6222 24.1979C82.6222 22.2916 82.6222 20.3171 82.6222 18.4107C82.6222 17.1852 82.6222 15.9596 82.5541 14.666C82.486 14.2575 82.2818 13.9171 81.9414 13.6447C81.6009 13.4405 81.1243 13.4405 80.6477 13.4405C79.8988 13.5086 79.286 13.9852 78.6733 14.4618C78.4009 14.666 78.1286 14.9384 77.8562 15.1426C77.7882 15.2107 77.7882 15.3469 77.7882 15.415C77.7882 18.3426 77.7882 21.2022 77.7882 24.1298C77.1754 24.1298 76.4946 24.1298 75.8818 24.1298V17.3213C75.8818 16.7767 75.8818 16.232 75.8818 15.6873C75.8818 15.1426 75.8818 14.5298 75.6775 14.0533C75.269 13.5086 74.5201 13.3724 73.9073 13.5767C72.9541 13.7809 72.1371 14.3937 71.3882 15.0745C71.252 15.1426 71.252 15.2788 71.252 15.415C71.252 18.3426 71.252 21.2703 71.252 24.1979C70.7073 24.1979 70.1626 24.1979 69.618 24.1979C69.5499 21.2022 69.618 18.2064 69.4818 15.2107C69.4818 14.5299 69.4818 13.849 69.3456 13.1681C69.2775 12.8277 69.1414 12.4873 69.1414 12.215ZM101.618 12.1469C102.231 12.0788 102.843 11.9426 103.456 11.8064C103.524 13.5086 103.524 15.2107 103.524 16.8447C103.524 19.2958 103.524 21.6788 103.524 24.1298C102.912 24.1298 102.231 24.1298 101.618 24.1298C101.618 20.6575 101.618 17.1852 101.618 13.7128C101.618 13.2362 101.55 12.6235 101.618 12.1469ZM126.061 11.8745C127.354 12.0788 128.443 13.3043 128.512 14.666C128.58 16.6405 128.512 18.683 128.512 20.6575V21.2703C128.512 21.6788 128.512 22.0873 128.648 22.4277C128.716 22.8362 129.124 23.0405 129.397 23.2447C129.124 23.5852 128.92 24.0618 128.58 24.3341C128.375 24.5384 128.103 24.3341 127.967 24.1979C127.49 23.8575 127.218 23.3809 126.946 22.8362C126.537 23.0405 126.265 23.449 125.788 23.6533C125.107 24.1298 124.29 24.3341 123.405 24.3341C122.656 24.3341 121.907 24.1979 121.226 23.8575C120.137 23.2447 119.524 22.0192 119.592 20.7937C119.592 19.6362 120.205 18.4788 121.09 17.7979C122.18 16.9809 123.609 16.7086 124.971 16.5724C125.584 16.5043 126.197 16.5043 126.878 16.5043C126.878 15.8916 126.878 15.2788 126.741 14.666C126.673 14.1894 126.401 13.6447 125.924 13.3724C125.38 13.1001 124.699 13.032 124.086 13.1681C122.929 13.3043 121.839 13.7809 120.886 14.4618C120.614 14.1213 120.341 13.7809 120.137 13.3724C120.001 13.1681 120.205 13.032 120.341 12.9639C121.635 12.283 122.997 11.6703 124.495 11.6703H125.107C125.448 11.8064 125.72 11.8064 126.061 11.8745ZM125.243 17.9341C124.631 18.0022 124.086 18.0022 123.473 18.1384C122.792 18.3426 122.18 18.7511 121.771 19.3639C121.567 19.7043 121.567 20.1128 121.567 20.5213C121.567 20.9298 121.499 21.4064 121.703 21.815C121.839 22.2235 122.18 22.632 122.588 22.7681C123.065 22.9724 123.609 22.9724 124.154 22.9724C124.767 22.9043 125.312 22.5639 125.788 22.1554C126.197 21.815 126.605 21.4064 126.605 20.8618C126.673 19.9086 126.673 18.8873 126.673 17.9341C126.197 18.0022 125.72 17.866 125.243 17.9341ZM145.941 11.9426C147.031 12.215 147.984 12.8958 148.665 13.7809C149.209 14.5298 149.55 15.3469 149.686 16.232C149.822 17.049 149.89 17.9341 149.822 18.8192C149.822 20.249 149.346 21.6107 148.529 22.7001C147.848 23.5852 146.758 24.1298 145.737 24.3341C144.443 24.5384 143.014 24.3341 141.856 23.5171C140.903 22.8362 140.29 21.7469 139.95 20.5894C139.746 19.9767 139.746 19.432 139.678 18.8192C139.678 17.7979 139.678 16.8447 139.814 15.8235C140.086 14.7341 140.631 13.6447 141.448 12.8277C142.061 12.215 142.878 11.8745 143.695 11.7384C144.512 11.7384 145.26 11.8064 145.941 11.9426ZM143.899 13.3724C143.014 13.5086 142.265 14.1894 141.992 15.0064C141.652 15.8916 141.652 16.8447 141.652 17.7298C141.652 18.615 141.652 19.5001 141.856 20.3171C141.992 20.9298 142.129 21.4745 142.537 21.9511C142.878 22.4277 143.49 22.7001 144.035 22.7681C144.239 22.8362 144.512 22.8362 144.716 22.8362H144.92H145.124C145.601 22.7681 146.009 22.632 146.418 22.4277C146.895 22.1554 147.235 21.6788 147.439 21.1341C147.643 20.5213 147.712 19.8405 147.78 19.2277C147.78 18.4788 147.848 17.7298 147.78 16.9128C147.712 16.0958 147.643 15.2788 147.235 14.5979C146.895 14.0533 146.418 13.6447 145.805 13.3724C145.192 13.2362 144.512 13.2362 143.899 13.3724ZM153.09 12.283C153.703 12.1469 154.248 11.9426 154.792 11.8064C155.133 12.4192 155.133 13.1001 155.201 13.7128C155.473 13.5086 155.746 13.2362 156.018 12.9639C156.835 12.1469 158.061 11.6703 159.218 11.8745V12.0107C158.946 12.5554 158.809 13.1681 158.537 13.7809C158.537 13.9171 158.333 13.849 158.265 13.849C157.788 13.849 157.175 13.849 156.767 14.1213C156.29 14.3937 155.95 14.7341 155.609 15.1426C155.269 15.5511 155.337 16.0958 155.337 16.5724C155.337 17.2533 155.269 17.9341 155.337 18.615C155.337 20.4533 155.337 22.3596 155.337 24.1979C154.724 24.1979 154.043 24.1979 153.431 24.1979C153.431 22.1554 153.431 20.0447 153.431 18.0022C153.431 16.5724 153.431 15.2107 153.363 13.7809C153.295 13.2362 153.158 12.7596 153.09 12.283ZM107.201 12.283C107.746 12.0788 108.358 11.8745 108.903 11.8745C109.107 12.4192 109.243 13.032 109.312 13.5767C109.788 13.2362 110.265 12.8277 110.741 12.5554C111.763 11.9426 112.988 11.5341 114.078 11.9426C114.758 12.1469 115.371 12.5554 115.78 13.1681C116.12 13.5767 116.188 14.1894 116.256 14.666C116.392 16.5724 116.324 18.4107 116.324 20.3171C116.324 21.6107 116.324 22.8362 116.324 24.0618C115.712 24.0618 115.031 24.0618 114.418 24.0618C114.418 22.0192 114.35 19.9086 114.35 17.866C114.35 16.7086 114.35 15.5511 114.214 14.3937C114.009 13.849 113.533 13.3724 112.92 13.3724C112.512 13.3724 112.035 13.3724 111.626 13.5086C110.741 13.849 109.924 14.3937 109.175 15.0064C109.175 18.0022 109.175 21.066 109.175 24.0618C108.631 24.0618 108.086 24.0618 107.541 24.0618C107.541 22.3596 107.473 20.6575 107.473 18.8873C107.473 17.1171 107.473 15.3469 107.337 13.5767C107.473 13.2362 107.337 12.7596 107.201 12.283Z" fill="#fff"></path></svg>